<?xml version="1.0" encoding="UTF-8"?>
<svg xmlns="http://www.w3.org/2000/svg" xmlns:xlink="http://www.w3.org/1999/xlink" width="300px" height="300px" viewBox="0 0 300 300" version="1.1">
<g id="surface1">
<path style=" stroke:none;fill-rule:nonzero;fill:rgb(0%,0%,0%);fill-opacity:1;" d="M 145.277344 0.195312 C 121.027344 0.890625 96.859375 7.695312 75.75 19.75 C 59.140625 29.25 43.359375 42.972656 31.527344 58.222656 C 14.277344 80.445312 3.804688 106.695312 0.832031 135.140625 C 0.667969 136.667969 0.417969 140.667969 0.277344 144.027344 C -0.890625 172.167969 5.890625 199.945312 20 224.582031 C 31.640625 244.945312 48.054688 262.332031 67.917969 275.417969 C 93.890625 292.5 124.667969 301 156 299.722656 C 171.917969 299.054688 186.332031 296.25 201.109375 290.917969 C 214.859375 285.945312 227.554688 279.109375 239.5 270.25 C 259.25 255.554688 275.890625 235.082031 286.054688 212.917969 C 298.390625 186.054688 302.554688 156.5 298.167969 127.222656 C 292.417969 89.027344 271.390625 53.859375 240.277344 30.359375 C 218.445312 13.890625 193.804688 4.140625 166.027344 0.972656 C 162.445312 0.554688 150.640625 -0.0546875 148.75 0.0546875 C 148.304688 0.0820312 146.722656 0.140625 145.277344 0.195312 Z M 110.277344 55.582031 C 111.582031 55.722656 112.75 55.972656 112.917969 56.140625 C 113.054688 56.277344 113.332031 56.390625 113.554688 56.390625 C 114.359375 56.390625 120.109375 59.417969 123.054688 61.417969 C 123.277344 61.554688 123.695312 61.75 123.972656 61.832031 C 124.222656 61.945312 124.445312 62.109375 124.445312 62.25 C 124.445312 62.390625 124.582031 62.5 124.777344 62.5 C 124.945312 62.5 126.167969 63.167969 127.472656 63.972656 C 128.777344 64.777344 130.054688 65.527344 130.277344 65.640625 C 130.5 65.75 131.140625 66.109375 131.667969 66.417969 C 132.195312 66.75 133.945312 67.777344 135.554688 68.75 C 137.167969 69.695312 140.667969 71.777344 143.332031 73.332031 C 146 74.917969 149.917969 77.25 152.027344 78.527344 C 154.109375 79.804688 155.917969 80.832031 155.972656 80.832031 C 156.054688 80.832031 157.527344 81.695312 159.277344 82.777344 C 161.027344 83.832031 162.582031 84.722656 162.75 84.722656 C 162.917969 84.722656 163.054688 84.832031 163.054688 85 C 163.054688 85.140625 163.195312 85.277344 163.359375 85.277344 C 163.527344 85.277344 165.082031 86.140625 166.832031 87.222656 C 168.582031 88.277344 170.054688 89.167969 170.140625 89.167969 C 170.222656 89.167969 172.195312 90.332031 174.5 91.75 C 176.832031 93.167969 178.945312 94.417969 179.167969 94.527344 C 179.390625 94.640625 179.777344 94.832031 180 95 C 181.554688 96 187.027344 99.167969 187.222656 99.167969 C 187.390625 99.167969 187.5 99.277344 187.5 99.417969 C 187.5 99.554688 187.804688 99.75 188.195312 99.832031 C 188.582031 99.945312 188.890625 100.140625 188.890625 100.277344 C 188.890625 100.445312 189 100.554688 189.167969 100.554688 C 189.304688 100.554688 190.554688 101.25 191.945312 102.082031 C 193.332031 102.917969 194.527344 103.609375 194.582031 103.609375 C 194.667969 103.609375 197 105 199.777344 106.695312 C 205.277344 110.054688 206.832031 111.25 208.332031 113.195312 C 208.859375 113.890625 209.445312 114.640625 209.609375 114.832031 C 210.140625 115.417969 211.417969 118.359375 211.832031 119.945312 C 212.332031 121.832031 212.332031 125.140625 211.832031 127 C 211.332031 128.832031 210.804688 130.359375 210.582031 130.554688 C 210.5 130.640625 210.167969 131.195312 209.859375 131.804688 C 209.027344 133.472656 205.417969 136.945312 202.972656 138.417969 C 201.777344 139.140625 200.695312 139.722656 200.554688 139.722656 C 200.390625 139.722656 200.277344 139.832031 200.277344 140 C 200.277344 140.140625 200.140625 140.277344 199.972656 140.277344 C 199.804688 140.277344 198.75 140.832031 197.667969 141.527344 C 196.554688 142.222656 195.5 142.777344 195.332031 142.777344 C 195.140625 142.777344 195 142.859375 195 143 C 195 143.109375 194.527344 143.445312 193.972656 143.75 C 193.390625 144.054688 191.859375 144.945312 190.554688 145.695312 C 189.25 146.472656 188 147.195312 187.777344 147.304688 C 187.554688 147.417969 186.859375 147.804688 186.25 148.195312 C 185.640625 148.582031 184.667969 149.140625 184.109375 149.445312 C 182.890625 150.109375 182.804688 150.332031 183.695312 150.777344 C 184.027344 150.945312 184.945312 151.472656 185.695312 151.945312 C 186.472656 152.390625 187.277344 152.859375 187.5 152.972656 C 187.722656 153.054688 189.167969 153.917969 190.722656 154.859375 C 192.25 155.804688 193.695312 156.667969 193.917969 156.777344 C 194.140625 156.890625 194.554688 157.109375 194.859375 157.304688 C 195.167969 157.5 197.109375 158.609375 199.167969 159.832031 C 201.222656 161.027344 203.472656 162.390625 204.167969 162.859375 C 207.390625 165.082031 210.277344 168.695312 211.25 171.667969 C 211.527344 172.5 211.832031 173.472656 211.972656 173.832031 C 212.304688 174.667969 212.304688 179.222656 211.972656 180.054688 C 211.832031 180.417969 211.527344 181.390625 211.25 182.222656 C 210.390625 184.917969 207.695312 188.445312 205 190.472656 C 203.75 191.417969 198.695312 194.445312 198.359375 194.445312 C 198.195312 194.445312 198.054688 194.527344 198.054688 194.667969 C 198.054688 194.777344 197.582031 195.109375 197.027344 195.417969 C 196.445312 195.722656 194.582031 196.777344 192.917969 197.804688 C 191.222656 198.804688 189.722656 199.695312 189.554688 199.75 C 189.277344 199.859375 184.527344 202.695312 177.582031 206.859375 C 175.722656 207.972656 174.140625 208.890625 174.054688 208.890625 C 173.972656 208.890625 172.5 209.777344 170.75 210.832031 C 169 211.917969 167.445312 212.777344 167.277344 212.777344 C 167.082031 212.777344 166.945312 212.890625 166.945312 213.054688 C 166.945312 213.195312 166.832031 213.332031 166.667969 213.332031 C 166.445312 213.332031 162.167969 215.804688 160.832031 216.695312 C 160.609375 216.832031 160.195312 217.027344 159.945312 217.109375 C 159.667969 217.222656 159.445312 217.390625 159.445312 217.527344 C 159.445312 217.667969 159.304688 217.777344 159.140625 217.777344 C 159 217.777344 157.332031 218.695312 155.472656 219.804688 C 151.445312 222.25 145.859375 225.527344 144.304688 226.390625 C 143.695312 226.722656 141.777344 227.859375 140.054688 228.917969 C 138.359375 229.972656 136.890625 230.832031 136.804688 230.832031 C 136.75 230.832031 135.25 231.722656 133.472656 232.777344 C 131.695312 233.859375 130.140625 234.722656 130 234.722656 C 129.832031 234.722656 129.722656 234.832031 129.722656 235 C 129.722656 235.140625 129.609375 235.277344 129.445312 235.277344 C 129.304688 235.277344 128.25 235.832031 127.140625 236.527344 C 126 237.222656 124.917969 237.777344 124.75 237.777344 C 124.582031 237.777344 124.445312 237.859375 124.445312 238 C 124.445312 238.109375 123.972656 238.445312 123.417969 238.75 C 122.832031 239.054688 121.25 239.972656 119.859375 240.804688 C 117.140625 242.417969 114.167969 243.890625 113.554688 243.890625 C 113.332031 243.890625 113.054688 244 112.917969 244.140625 C 112.472656 244.5 109.5 245 107.582031 245 C 104.972656 245 103.609375 244.667969 100.5 243.195312 C 98.945312 242.445312 95.945312 239.832031 94.804688 238.195312 C 93.917969 236.859375 92.777344 234.527344 92.777344 233.945312 C 92.777344 233.667969 92.609375 233.277344 92.445312 233.109375 C 91.917969 232.582031 91.917969 195.945312 92.445312 194.167969 C 93.695312 189.917969 93.640625 190.027344 95.167969 186.832031 C 96.917969 183.027344 99.75 179.027344 102.472656 176.417969 C 104.140625 174.832031 107.640625 172.222656 109.027344 171.527344 C 109.640625 171.222656 110.195312 170.890625 110.222656 170.75 C 110.277344 170.640625 110.445312 170.554688 110.554688 170.554688 C 110.695312 170.554688 112.25 169.695312 114.027344 168.609375 C 115.804688 167.527344 117.359375 166.667969 117.5 166.667969 C 117.667969 166.667969 117.777344 166.527344 117.777344 166.390625 C 117.777344 166.222656 117.917969 166.109375 118.082031 166.109375 C 118.25 166.109375 119.804688 165.222656 121.554688 164.167969 C 123.304688 163.082031 124.777344 162.222656 124.859375 162.222656 C 124.917969 162.222656 126.695312 161.195312 128.804688 159.917969 C 130.917969 158.640625 132.832031 157.527344 133.054688 157.417969 C 133.277344 157.304688 133.859375 157 134.304688 156.695312 C 137.027344 155.027344 140.195312 153.140625 140.554688 152.972656 C 140.777344 152.859375 141.609375 152.390625 142.359375 151.945312 C 143.140625 151.472656 144.027344 150.945312 144.390625 150.777344 C 144.722656 150.609375 145 150.359375 145 150.25 C 145 150.082031 142.304688 148.390625 141.527344 148.082031 C 141.390625 148.027344 139.890625 147.140625 138.195312 146.140625 C 136.527344 145.109375 134.667969 144.054688 134.109375 143.75 C 133.527344 143.445312 133.054688 143.109375 133.054688 143 C 133.054688 142.859375 132.917969 142.777344 132.722656 142.777344 C 132.554688 142.777344 131.5 142.222656 130.390625 141.527344 C 129.304688 140.832031 128.25 140.277344 128.082031 140.277344 C 127.917969 140.277344 127.777344 140.140625 127.777344 140 C 127.777344 139.832031 127.640625 139.722656 127.5 139.722656 C 127.332031 139.722656 126.109375 139.054688 124.777344 138.25 C 123.445312 137.445312 122.167969 136.695312 121.945312 136.582031 C 121.722656 136.472656 121.332031 136.277344 121.109375 136.109375 C 119.75 135.25 113.277344 131.390625 113.167969 131.390625 C 112.917969 131.390625 106.554688 127.445312 105.417969 126.582031 C 103.832031 125.390625 99.722656 121.167969 98.75 119.695312 C 98.304688 119.027344 97.75 118.304688 97.582031 118.109375 C 97.390625 117.917969 97.222656 117.554688 97.222656 117.332031 C 97.222656 117.109375 97.109375 116.945312 96.972656 116.945312 C 96.832031 116.945312 96.667969 116.722656 96.582031 116.445312 C 96.5 116.195312 96.167969 115.527344 95.859375 115 C 95.554688 114.472656 95.027344 113.390625 94.722656 112.640625 C 94.390625 111.859375 94.027344 111 93.890625 110.695312 C 93.75 110.390625 93.445312 109.445312 93.195312 108.609375 C 92.945312 107.777344 92.582031 106.582031 92.417969 105.972656 C 91.917969 104.332031 91.945312 67.945312 92.445312 67.445312 C 92.609375 67.277344 92.777344 66.890625 92.777344 66.582031 C 92.777344 65.890625 94.25 62.972656 95.417969 61.390625 C 97.640625 58.359375 101.359375 56.140625 105.167969 55.582031 C 107.5 55.25 107.667969 55.25 110.277344 55.582031 Z M 110.277344 55.582031 "/>
<path style=" stroke:none;fill-rule:nonzero;fill:rgb(0%,0%,0%);fill-opacity:1;" d="M 111.167969 89.777344 C 111.25 101.667969 111.304688 103 111.722656 103.75 C 112 104.195312 112.222656 104.777344 112.222656 105.054688 C 112.222656 105.304688 112.304688 105.554688 112.445312 105.609375 C 112.554688 105.640625 112.859375 106.140625 113.140625 106.695312 C 114.167969 108.722656 116.054688 110.75 118.25 112.195312 C 119.445312 112.972656 120.582031 113.609375 120.777344 113.609375 C 120.945312 113.609375 121.109375 113.722656 121.109375 113.890625 C 121.109375 114.027344 121.222656 114.167969 121.359375 114.167969 C 121.527344 114.167969 123.167969 115.082031 125.054688 116.195312 C 126.945312 117.304688 130.195312 119.25 132.304688 120.5 C 134.390625 121.75 136.25 122.777344 136.390625 122.777344 C 136.554688 122.777344 136.667969 122.890625 136.667969 123.054688 C 136.667969 123.195312 136.777344 123.332031 136.945312 123.332031 C 137.082031 123.332031 138.609375 124.167969 140.332031 125.222656 C 142.054688 126.25 143.945312 127.332031 144.527344 127.640625 C 145.082031 127.945312 145.554688 128.277344 145.554688 128.390625 C 145.554688 128.527344 145.695312 128.609375 145.890625 128.609375 C 146.054688 128.609375 147.304688 129.304688 148.667969 130.140625 C 150 130.972656 151.167969 131.667969 151.25 131.667969 C 151.304688 131.667969 152.804688 132.527344 154.582031 133.609375 C 156.359375 134.667969 157.859375 135.554688 157.917969 135.554688 C 157.972656 135.554688 159.359375 136.359375 161 137.332031 C 163.527344 138.859375 164.054688 139.082031 164.554688 138.832031 C 164.859375 138.667969 166.222656 137.859375 167.554688 137.054688 C 168.917969 136.222656 170.082031 135.554688 170.140625 135.554688 C 170.195312 135.554688 171.695312 134.667969 173.472656 133.609375 C 175.25 132.527344 176.75 131.667969 176.804688 131.667969 C 176.859375 131.667969 178.5 130.695312 180.472656 129.5 C 182.417969 128.304688 184.222656 127.222656 184.445312 127.140625 C 184.667969 127.027344 185.417969 126.582031 186.109375 126.167969 C 186.804688 125.75 188.027344 125.027344 188.832031 124.582031 C 189.640625 124.109375 190.277344 123.609375 190.277344 123.472656 C 190.277344 123.304688 189.5 122.75 188.554688 122.222656 C 187.582031 121.722656 185.082031 120.25 183 118.972656 C 180.917969 117.695312 179.054688 116.667969 178.890625 116.667969 C 178.75 116.667969 178.609375 116.527344 178.609375 116.390625 C 178.609375 116.222656 178.5 116.109375 178.332031 116.109375 C 178.109375 116.109375 173.832031 113.640625 172.5 112.75 C 172.277344 112.609375 171.859375 112.417969 171.609375 112.332031 C 171.332031 112.222656 171.109375 112.054688 171.109375 111.917969 C 171.109375 111.777344 170.972656 111.667969 170.804688 111.667969 C 170.640625 111.667969 168.859375 110.695312 166.859375 109.472656 C 156.359375 103.195312 154.640625 102.167969 153.417969 101.472656 C 152.695312 101.082031 151 100.082031 149.640625 99.25 C 148.304688 98.445312 147.082031 97.777344 146.945312 97.777344 C 146.777344 97.777344 146.667969 97.667969 146.667969 97.527344 C 146.667969 97.390625 146.359375 97.195312 145.972656 97.109375 C 145.582031 97 145.277344 96.804688 145.277344 96.667969 C 145.277344 96.5 145.140625 96.390625 144.972656 96.390625 C 144.804688 96.390625 143.472656 95.667969 142 94.777344 C 140.527344 93.890625 137.445312 92.027344 135.140625 90.667969 C 132.859375 89.304688 130.722656 88.054688 130.417969 87.859375 C 130.109375 87.667969 129.667969 87.417969 129.445312 87.304688 C 129.222656 87.195312 127.609375 86.277344 125.890625 85.222656 C 124.167969 84.195312 122.640625 83.332031 122.5 83.332031 C 122.332031 83.332031 122.222656 83.222656 122.222656 83.054688 C 122.222656 82.917969 121.917969 82.722656 121.527344 82.609375 C 121.140625 82.527344 120.832031 82.332031 120.832031 82.195312 C 120.832031 82.054688 120.695312 81.945312 120.527344 81.945312 C 120.359375 81.945312 118.832031 81.109375 117.140625 80.054688 C 115.417969 79.027344 113.554688 77.945312 113 77.640625 C 112.417969 77.332031 111.945312 77 111.945312 76.890625 C 111.945312 76.75 111.75 76.667969 111.527344 76.667969 C 111.140625 76.667969 111.082031 78.109375 111.167969 89.777344 Z M 111.167969 89.777344 "/>
<path style=" stroke:none;fill-rule:nonzero;fill:rgb(0%,0%,0%);fill-opacity:1;" d="M 163.609375 161.609375 C 163.25 161.75 158.777344 164.332031 157.777344 165.027344 C 157.554688 165.167969 157.140625 165.359375 156.890625 165.445312 C 156.609375 165.554688 156.390625 165.722656 156.390625 165.859375 C 156.390625 166 156.25 166.109375 156.082031 166.109375 C 155.917969 166.109375 154.859375 166.667969 153.777344 167.359375 C 152.667969 168.054688 151.609375 168.609375 151.445312 168.609375 C 151.25 168.609375 151.109375 168.695312 151.109375 168.832031 C 151.109375 168.945312 150.640625 169.277344 150.082031 169.582031 C 149.5 169.890625 147.304688 171.167969 145.222656 172.417969 C 143.109375 173.695312 141.332031 174.722656 141.277344 174.722656 C 141.195312 174.722656 139.5 175.722656 137.527344 176.945312 C 135.527344 178.167969 133.832031 179.167969 133.75 179.167969 C 133.695312 179.167969 132.5 179.859375 131.109375 180.695312 C 129.722656 181.527344 128.472656 182.222656 128.332031 182.222656 C 128.167969 182.222656 128.054688 182.332031 128.054688 182.5 C 128.054688 182.640625 127.75 182.832031 127.359375 182.945312 C 126.972656 183.027344 126.667969 183.222656 126.667969 183.359375 C 126.667969 183.5 126.554688 183.609375 126.390625 183.609375 C 126.195312 183.609375 122.722656 185.582031 120.554688 186.945312 C 120.332031 187.082031 119.582031 187.5 118.917969 187.832031 C 117.140625 188.75 114.667969 191.222656 113.359375 193.417969 C 112.722656 194.445312 112.222656 195.390625 112.222656 195.5 C 112.222656 195.609375 112.054688 196.027344 111.832031 196.445312 C 111.609375 196.859375 111.304688 198.054688 111.140625 199.140625 C 110.75 201.554688 110.722656 223.609375 111.082031 223.609375 C 111.445312 223.609375 113.167969 222.695312 113.277344 222.417969 C 113.332031 222.304688 113.5 222.222656 113.609375 222.222656 C 113.75 222.222656 115.304688 221.332031 117.082031 220.277344 C 118.859375 219.195312 120.359375 218.332031 120.417969 218.332031 C 120.5 218.332031 121.667969 217.640625 123 216.804688 C 124.359375 215.972656 125.609375 215.277344 125.777344 215.277344 C 125.972656 215.277344 126.109375 215.195312 126.109375 215.054688 C 126.109375 214.945312 126.582031 214.609375 127.167969 214.304688 C 127.722656 214 129.917969 212.722656 132.027344 211.472656 C 134.140625 210.195312 135.917969 209.167969 135.972656 209.167969 C 136.027344 209.167969 137.722656 208.167969 139.695312 206.945312 C 141.695312 205.722656 143.390625 204.722656 143.472656 204.722656 C 143.554688 204.722656 145.027344 203.832031 146.777344 202.777344 C 148.527344 201.695312 150.082031 200.832031 150.25 200.832031 C 150.417969 200.832031 150.554688 200.695312 150.554688 200.554688 C 150.554688 200.390625 150.695312 200.277344 150.859375 200.277344 C 151.027344 200.277344 152.082031 199.722656 153.167969 199.027344 C 154.277344 198.332031 155.332031 197.777344 155.5 197.777344 C 155.695312 197.777344 155.832031 197.695312 155.832031 197.554688 C 155.832031 197.445312 156.304688 197.109375 156.890625 196.804688 C 157.445312 196.5 159.640625 195.222656 161.722656 193.972656 C 163.804688 192.695312 165.582031 191.667969 165.640625 191.667969 C 165.695312 191.667969 167.695312 190.472656 170.109375 189.027344 C 172.5 187.582031 174.527344 186.390625 174.582031 186.390625 C 174.667969 186.390625 175.832031 185.695312 177.195312 184.859375 C 178.554688 184.027344 179.804688 183.332031 179.972656 183.332031 C 180.140625 183.332031 180.277344 183.222656 180.277344 183.054688 C 180.277344 182.917969 180.582031 182.722656 180.972656 182.609375 C 181.359375 182.527344 181.667969 182.332031 181.667969 182.195312 C 181.667969 182.054688 181.777344 181.945312 181.945312 181.945312 C 182.140625 181.945312 185.609375 179.972656 187.777344 178.609375 C 188 178.472656 188.722656 178.082031 189.390625 177.722656 L 190.582031 177.109375 L 189.945312 176.609375 C 189.582031 176.359375 188.859375 175.917969 188.332031 175.640625 C 187.804688 175.359375 185.472656 173.972656 183.140625 172.554688 C 180.804688 171.167969 178.832031 170 178.75 170 C 178.667969 170 177.195312 169.109375 175.445312 168.054688 C 173.695312 166.972656 172.140625 166.109375 171.972656 166.109375 C 171.804688 166.109375 171.667969 166 171.667969 165.859375 C 171.667969 165.722656 171.445312 165.554688 171.195312 165.445312 C 170.917969 165.359375 170.5 165.167969 170.277344 165.027344 C 169.332031 164.390625 164.832031 161.75 164.445312 161.609375 C 164.222656 161.527344 163.832031 161.527344 163.609375 161.609375 Z M 163.609375 161.609375 "/>
</g>
</svg>
