<?xml version="1.0" standalone="no"?>
<!DOCTYPE svg PUBLIC "-//W3C//DTD SVG 20010904//EN"
 "http://www.w3.org/TR/2001/REC-SVG-20010904/DTD/svg10.dtd">
<svg version="1.0" xmlns="http://www.w3.org/2000/svg"
 width="1080.000000pt" height="1080.000000pt" viewBox="0 0 1080.000000 1080.000000"
 preserveAspectRatio="xMidYMid meet">

<g transform="translate(0.000000,1080.000000) scale(0.100000,-0.100000)" stroke="none">
<path d="M5050 10754 c-342 -30 -567 -63 -820 -120 -829 -187 -1580 -562
-2265 -1130 -164 -136 -519 -490 -655 -653 -740 -892 -1156 -1905 -1251 -3046
-15 -180 -15 -600 0 -780 94 -1137 521 -2168 1259 -3045 135 -160 471 -496
632 -632 875 -737 1909 -1165 3045 -1259 180 -15 610 -15 790 0 1138 94 2164
520 3047 1263 270 227 604 582 827 877 579 767 954 1712 1045 2638 25 255 27
281 26 542 0 381 -27 673 -96 1021 -274 1392 -1119 2647 -2319 3441 -721 478
-1524 769 -2380 864 -142 16 -766 29 -885 19z m93 -3336 c3 -1046 4 -1127 21
-1183 42 -142 108 -224 222 -277 123 -57 120 -57 1292 -58 l1072 0 0 -1322 c0
-1418 0 -1426 -50 -1578 -91 -276 -300 -442 -620 -492 -129 -20 -3278 -19
-3400 1 -398 65 -613 296 -660 707 -8 71 -10 733 -7 2364 3 2481 -1 2303 61
2480 83 238 271 397 536 454 113 24 88 23 832 25 l697 1 4 -1122z m507 1069
c62 -26 126 -68 196 -128 89 -77 1717 -1745 1765 -1808 50 -66 93 -145 105
-193 l6 -28 -1028 0 c-803 0 -1034 3 -1054 13 -13 7 -35 28 -47 46 l-23 34 0
1043 c0 829 3 1044 13 1044 6 0 37 -11 67 -23z"/>
</g>
</svg>
